<svg xmlns="http://www.w3.org/2000/svg" width="851" height="1280" viewBox="0 0 851.000000 1280.000000" preserveAspectRatio="xMidYMid meet" id="svgcontent" overflow="visible" x="851" y="1280"><metadata opacity="0.33" style="pointer-events: none">Created by potrace 1.15, written by Peter Selinger 2001-2017</metadata><defs><linearGradient id="svg_45"><stop stop-color="#9900cc" stop-opacity="0.99609375" offset="0.53387451171875"></stop><stop stop-color="#cc00ff" stop-opacity="0.99609375" offset="0.83856201171875"></stop></linearGradient><linearGradient id="svg_46" x1="1" y1="0.0" x2="1.0" y2="0.0"><stop stop-color="#9900cc" stop-opacity="0.99609375" offset="0.53387451171875"></stop><stop stop-color="#cc00ff" stop-opacity="0.99609375" offset="0.83856201171875"></stop></linearGradient><linearGradient id="svg_47" x1="0.4" y1="0.0" x2="1.0" y2="0.0"><stop stop-color="#9900cc" stop-opacity="0.99609375" offset="0.53387451171875"></stop><stop stop-color="#cc00ff" stop-opacity="0.99609375" offset="0.83856201171875"></stop></linearGradient><linearGradient id="svg_48" x1="0.4" y1="0.0" x2="1.0" y2="0.0"><stop stop-color="#9900cc" stop-opacity="0.99609375" offset="0.10418701171875"></stop><stop stop-color="#cc00ff" stop-opacity="0.99609375" offset="0.11199951171875"></stop><stop stop-color="#cc00ff" stop-opacity="0.99609375" offset="0.83856201171875"></stop></linearGradient><linearGradient id="svg_49" x1="0.4" y1="0.0" x2="1.0" y2="0.0"><stop stop-color="#9900cc" stop-opacity="0.99609375" offset="0"></stop><stop stop-color="#cc00ff" stop-opacity="0.99609375" offset="0.59246826171875"></stop><stop stop-color="#cc00ff" stop-opacity="0.99609375" offset="0.83856201171875"></stop></linearGradient><linearGradient id="svg_50" x1="0.4" y1="0.0" x2="1.0" y2="0.0"><stop stop-color="#9900cc" stop-opacity="0.99609375" offset="0"></stop><stop stop-color="#cc00ff" stop-opacity="0.99609375" offset="0.51434326171875"></stop><stop stop-color="#cc00ff" stop-opacity="0.99609375" offset="0.66668701171875"></stop><stop stop-color="#cc00ff" stop-opacity="0.99609375" offset="0.95574951171875"></stop></linearGradient></defs><g class="layer" style="pointer-events:all"><title style="pointer-events: none" opacity="0.33">Layer 1</title><g transform="translate(0 1280) scale(0.1 -0.1)" fill="#000000" stroke="none" id="svg_1" fill-opacity="1"><path d="M4195,12548C3770,11997 3538,11586 3381,11112C3334,10972 3313,10886 3345,10970C3366,11024 3362,10994 3335,10900C3322,10853 3311,10824 3310,10835C3309,10846 3302,10833 3294,10805C3286,10778 3282,10748 3284,10740C3286,10732 3288,10736 3289,10749C3289,10762 3293,10771 3296,10768C3299,10765 3298,10745 3294,10724C3288,10691 3286,10689 3279,10705C3273,10718 3272,10709 3275,10680C3278,10655 3276,10619 3271,10600C3263,10570 3262,10568 3260,10590C3255,10646 3231,10480 3235,10415C3238,10358 3237,10353 3230,10385C3223,10416 3222,10408 3225,10345C3227,10288 3226,10275 3220,10300C3215,10325 3213,10308 3215,10245C3217,10177 3216,10167 3210,10205C3204,10250 3203,10252 3202,10218C3198,10145 3190,10145 3143,10215C3119,10251 3102,10285 3105,10290C3109,10296 3104,10314 3096,10332C3084,10355 3081,10389 3082,10459L3084,10555L3090,10450L3096,10345L3097,10440C3099,10536 3085,10658 3080,10595C3078,10569 3077,10571 3069,10610C3064,10635 3062,10662 3064,10670C3066,10678 3068,10672 3069,10656C3069,10640 3073,10630 3076,10633C3080,10636 3075,10681 3065,10732C3053,10793 3044,10818 3040,10805C3035,10790 3032,10794 3026,10824C3022,10845 3021,10865 3024,10868C3027,10871 3030,10862 3031,10849C3031,10836 3034,10830 3036,10836C3045,10858 3000,11022 2976,11053C2933,11110 2919,11159 2918,11250C2917,11349 2934,11435 3001,11689C3029,11790 3048,11875 3045,11878C3042,11881 3040,11875 3040,11865C3040,11855 3038,11849 3035,11852C3032,11855 3039,11896 3051,11944C3063,11992 3075,12029 3077,12026C3079,12024 3076,12003 3070,11980C3064,11957 3061,11936 3063,11933C3068,11929 3131,12180 3169,12352L3188,12439L3167,12446C3144,12453 3144,12453 3052,12335C3023,12298 3001,12266 3003,12263C3006,12261 3038,12300 3076,12349C3114,12399 3146,12437 3148,12435C3153,12430 3027,12268 3003,12249C2988,12237 2987,12237 2995,12250C2999,12258 2989,12252 2972,12236C2933,12200 2929,12177 2968,12211L2995,12235L2971,12208C2957,12192 2944,12182 2941,12185C2935,12192 2870,12129 2870,12116C2870,12111 2887,12122 2908,12141L2945,12175L2911,12138C2892,12117 2873,12103 2869,12106C2858,12113 2644,11871 2545,11739C2458,11623 2368,11458 2331,11345C2205,10960 2252,10477 2484,9785C2582,9495 2579,9502 2592,9520C2600,9532 2601,9532 2596,9517C2589,9496 2598,9450 2609,9450C2630,9450 2857,9750 2933,9880C2992,9979 3079,10183 3040,10130C3032,10118 3031,10122 3036,10145C3044,10181 3050,10190 3050,10167C3050,10141 3070,10147 3071,10173C3072,10194 3072,10194 3080,10170C3091,10136 3091,10110 3080,10135C3069,10160 3069,10134 3080,10100C3087,10079 3088,10078 3090,10095C3092,10117 3120,10024 3119,10000C3118,9992 3112,10005 3105,10030C3088,10088 3086,10067 3102,10000C3110,9964 3116,9953 3120,9966C3129,9990 3163,9816 3155,9790C3152,9779 3156,9733 3164,9688C3173,9642 3186,9517 3195,9410C3203,9303 3212,9197 3215,9175C3218,9152 3217,9142 3212,9153C3206,9166 3200,9154 3187,9104C3177,9068 3171,9036 3173,9033C3176,9031 3183,9052 3190,9080C3197,9108 3204,9129 3207,9126C3210,9124 3199,9078 3184,9025C3169,8972 3154,8934 3150,8939C3147,8945 3134,8917 3121,8877C3049,8652 2931,8377 2715,7935C2574,7647 2498,7478 2452,7350C2414,7244 2405,7209 2419,7230C2432,7248 2432,7233 2420,7205C2414,7191 2411,7190 2410,7200C2408,7218 2372,7122 2372,7100C2372,7092 2378,7101 2385,7120C2406,7174 2402,7144 2375,7050C2362,7003 2351,6974 2350,6985C2348,7002 2347,7001 2340,6980C2336,6966 2332,6946 2332,6935C2332,6919 2334,6920 2341,6940C2348,6961 2349,6960 2345,6931C2342,6913 2340,6890 2339,6881C2338,6872 2335,6876 2331,6890C2320,6930 2296,6772 2295,6650C2295,6592 2293,6482 2291,6405L2288,6265L2274,6355C2266,6405 2259,6492 2258,6550C2256,6632 2255,6645 2249,6610C2244,6579 2243,6594 2245,6655C2247,6723 2246,6735 2240,6705C2233,6671 2232,6675 2235,6728C2238,6762 2236,6832 2232,6883C2225,6974 2225,6974 2219,6920C2215,6890 2214,6926 2215,7000C2217,7088 2215,7111 2211,7065C2208,7027 2205,7139 2205,7315C2205,7491 2208,7606 2211,7570C2216,7521 2217,7531 2215,7610C2214,7668 2216,7699 2219,7680C2225,7648 2226,7651 2233,7709C2237,7743 2238,7791 2235,7814C2232,7843 2233,7848 2238,7830C2246,7807 2247,7808 2253,7845C2262,7897 2260,7924 2250,7885C2243,7858 2242,7858 2242,7880C2242,7894 2246,7916 2250,7930C2257,7951 2258,7952 2260,7935C2262,7908 2300,8048 2298,8080C2298,8100 2296,8098 2289,8070C2283,8044 2282,8054 2285,8105C2288,8156 2286,8167 2280,8145C2274,8123 2272,8134 2275,8185C2278,8240 2277,8248 2270,8220C2262,8191 2262,8195 2265,8242C2268,8276 2261,8354 2246,8442C2191,8763 2128,8975 2023,9185C1925,9380 1825,9515 1656,9678C1557,9773 1393,9906 1385,9898C1382,9896 1420,9865 1468,9829C1586,9742 1790,9536 1873,9420C1936,9330 2082,9054 2094,9000L2100,8975L2089,9000C1936,9330 1854,9456 1680,9631C1606,9705 1410,9870 1396,9870C1394,9870 1390,9864 1387,9858C1385,9851 1384,9853 1385,9862C1387,9872 1384,9883 1379,9886C1374,9889 1372,9895 1375,9900C1378,9904 1374,9913 1366,9919C1355,9928 1356,9917 1368,9864C1378,9823 1386,9805 1390,9816C1394,9826 1401,9812 1409,9776C1416,9744 1419,9716 1416,9713C1413,9709 1409,9718 1409,9731C1408,9744 1406,9748 1404,9740C1402,9732 1411,9682 1425,9630C1438,9578 1447,9552 1444,9573C1441,9593 1441,9610 1444,9610C1451,9610 1482,9460 1477,9447C1474,9441 1471,9448 1471,9464C1470,9480 1467,9491 1464,9487C1458,9481 1488,9309 1497,9300C1500,9297 1499,9318 1496,9345L1491,9395L1505,9335C1513,9302 1518,9255 1515,9230C1512,9200 1513,9192 1519,9205C1526,9221 1529,9216 1535,9177C1539,9151 1540,9126 1536,9123C1533,9119 1530,9132 1530,9150C1530,9168 1527,9181 1524,9177C1521,9174 1526,9114 1537,9043C1551,8939 1556,8922 1562,8950C1565,8970 1567,8950 1565,8905C1562,8843 1563,8834 1570,8865C1576,8896 1578,8885 1575,8820C1573,8759 1574,8746 1580,8775C1585,8802 1587,8780 1585,8705C1583,8631 1584,8615 1589,8655C1592,8688 1595,8589 1595,8435C1595,8281 1592,8182 1589,8215C1584,8260 1583,8252 1585,8180C1587,8116 1585,8095 1579,8115C1573,8137 1572,8130 1576,8090C1578,8060 1576,8022 1571,8005C1564,7983 1561,7980 1560,7995C1558,8012 1557,8011 1550,7990C1546,7976 1542,7956 1542,7945C1542,7929 1544,7930 1550,7950C1556,7970 1558,7971 1558,7955C1559,7930 1542,7888 1540,7910C1540,7918 1524,7885 1506,7835C1463,7718 1433,7659 1374,7581C1318,7506 1237,7436 1158,7395L1101,7365L996,7165C820,6830 730,6624 647,6365C574,6137 516,5871 524,5795C528,5758 527,5752 520,5770C514,5788 513,5774 515,5725C518,5676 517,5667 512,5695C505,5735 504,5734 498,5672C495,5638 493,5566 495,5512C497,5430 496,5425 491,5480L484,5545L482,5455C481,5406 473,5334 464,5295C455,5257 446,5214 444,5200L440,5175L449,5200C464,5242 461,5198 445,5145C432,5099 431,5099 436,5135C445,5195 434,5174 416,5097C400,5030 395,4967 410,5025C417,5052 418,5052 418,5030C418,5016 414,4994 410,4980C403,4959 402,4958 400,4975C398,4992 397,4991 390,4970C386,4956 382,4932 382,4915C383,4886 383,4886 390,4920C397,4954 397,4954 398,4925C398,4909 394,4882 390,4865C383,4837 382,4836 380,4860C378,4882 377,4881 368,4850C363,4831 358,4745 357,4660C356,4554 354,4527 351,4575C347,4614 345,4530 345,4390C345,4250 348,4167 351,4205C356,4262 357,4257 355,4176C353,4122 355,4052 358,4021L365,3965L371,4005C375,4032 377,4018 377,3960C377,3899 386,3838 410,3740C428,3666 447,3598 452,3590C459,3578 460,3580 456,3595C441,3656 443,3667 460,3615C470,3583 477,3554 475,3551C472,3549 470,3553 470,3560C470,3567 468,3571 465,3568C457,3560 471,3529 480,3535C484,3538 490,3533 493,3525C497,3515 494,3513 483,3517C471,3522 468,3519 473,3507C476,3498 477,3490 473,3490C470,3490 415,3521 351,3559C239,3626 96,3733 55,3781C44,3794 59,3784 88,3760C194,3671 267,3619 359,3564C410,3534 454,3511 457,3513C459,3516 428,3536 388,3558C288,3613 183,3688 108,3759C51,3812 43,3817 26,3804C8,3791 9,3786 50,3668C259,3065 558,2446 848,2020C1373,1247 2006,744 2810,460C2962,407 3169,346 3176,353C3179,356 3158,363 3130,370C3102,377 3081,384 3083,387C3086,389 3118,383 3154,373C3197,362 3215,353 3204,350C3194,346 3254,329 3338,311C3421,293 3495,280 3502,283C3509,286 3502,289 3486,289C3470,290 3459,293 3463,296C3466,299 3488,299 3512,295C3547,289 3551,286 3535,279C3522,273 3531,272 3560,276C3585,279 3623,277 3645,272C3676,264 3680,262 3660,260C3604,255 3717,241 3780,245C3830,248 3837,247 3810,240C3785,234 3798,233 3860,235C3928,238 3936,237 3900,230C3865,224 3877,223 3950,225C4023,227 4035,226 4000,220C3967,214 3979,213 4045,216C4126,221 4146,218 4267,184C4340,163 4398,145 4396,142C4393,140 4350,150 4300,165C4249,179 4206,189 4203,187C4196,180 4429,118 4443,123C4449,126 4444,129 4431,129C4418,130 4409,133 4413,136C4419,142 4570,111 4570,104C4570,101 4553,102 4533,106C4512,110 4497,110 4500,107C4509,97 4719,58 4738,63C4747,66 4740,68 4721,69C4702,69 4689,73 4693,76C4696,80 4721,79 4747,75C4785,69 4791,66 4775,59C4763,54 4781,53 4820,55C4875,58 4879,58 4845,50C4813,43 4822,42 4885,45C4942,47 4955,46 4930,40C4905,34 4919,33 4980,35C5046,37 5055,36 5020,30C4989,24 5013,23 5095,25C5162,26 5191,25 5160,21C5130,18 5220,15 5360,15C5500,15 5590,18 5560,21C5528,25 5552,26 5620,25C5700,23 5723,24 5695,30C5665,37 5674,38 5735,35C5792,32 5806,34 5785,40C5763,46 5774,48 5825,45C5880,42 5888,43 5860,50C5831,57 5835,58 5885,55C5928,52 5939,54 5925,61C5910,68 5914,69 5943,65C5989,58 6113,80 6085,90C6070,95 6073,98 6100,103C6118,107 6135,108 6138,105C6141,102 6135,100 6125,100C6115,100 6109,97 6112,94C6130,76 6497,192 6680,273C7016,423 7270,597 7517,846C7791,1123 7981,1431 8099,1788C8126,1869 8151,1951 8154,1970C8159,2005 8159,2005 8145,1965C8125,1907 8128,1943 8150,2025C8160,2064 8169,2086 8170,2075C8172,2058 8173,2059 8180,2080C8184,2094 8188,2116 8188,2130C8188,2152 8187,2152 8180,2125C8173,2098 8172,2098 8172,2120C8172,2134 8176,2159 8180,2175C8187,2203 8188,2204 8190,2180C8195,2123 8210,2227 8206,2290C8202,2339 8203,2346 8209,2320C8215,2295 8217,2313 8215,2380C8213,2446 8214,2458 8219,2420C8222,2390 8225,2491 8225,2645C8225,2799 8222,2898 8219,2865C8214,2824 8213,2838 8215,2910C8217,2981 8215,3004 8210,2980C8204,2955 8202,2965 8205,3020C8208,3078 8207,3087 8200,3060C8192,3029 8191,3030 8195,3076C8197,3103 8196,3146 8192,3171C8186,3214 8186,3214 8178,3185C8172,3162 8172,3165 8175,3200C8177,3225 8175,3261 8170,3280C8163,3310 8162,3311 8160,3290C8159,3276 8150,3301 8139,3345C8119,3432 8116,3456 8130,3425C8137,3411 8138,3417 8133,3445C8121,3527 8118,3525 8055,3412C7885,3104 7784,2955 7660,2830C7537,2705 7320,2570 7216,2553L7184,2548L7191,2616C7209,2774 7195,3023 7155,3286C7109,3583 7098,3733 7103,4005C7110,4350 7145,4565 7241,4852C7281,4970 7335,5096 7326,5050C7308,4960 7299,4875 7302,4824L7305,4765L7328,4849C7394,5093 7570,5459 7736,5698C7782,5765 7788,5776 7767,5764C7761,5760 7771,5774 7792,5796C7812,5817 7875,5889 7933,5955C8053,6093 8121,6159 8275,6291C8336,6342 8413,6409 8448,6438C8510,6492 8526,6520 8492,6520C8478,6520 8474,6528 8474,6555C8474,6597 8449,6627 8392,6652C8286,6699 8191,6694 7905,6624C7761,6588 7514,6509 7470,6483C7454,6474 7452,6471 7465,6475C7476,6479 7523,6495 7569,6511C7616,6527 7655,6538 7657,6536C7660,6534 7653,6529 7642,6526C7622,6519 7622,6518 7640,6460C7650,6428 7655,6398 7651,6394C7648,6390 7658,6390 7674,6394C7760,6415 7751,6406 7655,6377C7417,6304 7209,6219 7041,6126C6981,6093 6960,6085 6964,6098C7005,6230 7034,6349 7027,6356C7025,6359 7019,6345 7016,6324C7012,6304 7007,6290 7004,6293C7001,6295 7004,6319 7011,6345C7018,6373 7026,6387 7030,6379C7035,6372 7040,6379 7045,6399C7049,6417 7049,6434 7046,6437C7043,6441 7040,6433 7040,6420C7040,6407 7037,6399 7034,6402C7031,6405 7032,6425 7036,6446C7042,6476 7045,6480 7050,6465C7055,6452 7060,6465 7069,6509C7076,6544 7079,6575 7076,6578C7073,6581 7070,6572 7069,6559C7069,6546 7067,6540 7064,6545C7062,6551 7066,6589 7074,6630C7083,6677 7089,6694 7090,6675C7095,6610 7109,6724 7105,6795C7102,6851 7103,6857 7110,6825C7116,6796 7117,6815 7115,6890C7113,6958 7115,6976 7119,6940C7122,6910 7125,6986 7125,7110C7125,7238 7123,7307 7119,7270C7114,7215 7113,7219 7115,7295C7118,7386 7099,7558 7092,7510C7089,7494 7079,7521 7064,7585C7039,7696 7035,7726 7055,7665C7063,7643 7069,7633 7069,7642C7071,7679 6986,7912 6926,8035C6866,8160 6720,8391 6684,8421C6668,8433 6667,8433 6675,8420C6680,8412 6703,8380 6727,8349C6851,8185 7005,7878 7035,7735C7038,7719 7023,7755 7001,7815C6929,8010 6823,8209 6713,8353C6657,8425 6653,8458 6691,8530C6706,8560 6719,8581 6720,8577C6720,8573 6708,8547 6694,8519C6680,8491 6671,8466 6673,8464C6679,8458 6755,8625 6780,8703C6793,8740 6801,8773 6798,8776C6795,8778 6787,8760 6781,8734C6774,8709 6767,8689 6765,8692C6763,8694 6770,8729 6781,8770C6791,8810 6800,8853 6801,8864C6802,8883 6803,8883 6808,8862C6812,8849 6815,8915 6815,9009C6815,9103 6812,9172 6809,9162C6805,9151 6800,9160 6795,9188C6791,9212 6791,9234 6794,9237C6797,9241 6800,9230 6801,9214C6801,9198 6804,9191 6807,9198C6814,9217 6779,9354 6770,9340C6765,9332 6760,9338 6756,9355C6752,9370 6751,9385 6755,9388C6758,9391 6760,9385 6760,9375C6760,9365 6763,9359 6766,9363C6770,9366 6731,9490 6681,9637C6631,9784 6586,9924 6580,9948C6571,9982 6565,9990 6546,9990C6524,9990 6522,9984 6502,9858C6490,9785 6469,9626 6455,9505C6441,9384 6423,9250 6415,9206C6391,9078 6346,8998 6281,8970C6246,8955 6109,8761 6047,8640C5983,8513 5967,8432 5973,8270C5979,8122 6026,7905 6076,7793C6084,7776 6090,7757 6090,7751C6090,7725 6115,7747 6228,7873C6374,8033 6463,8140 6520,8223C6578,8306 6559,8286 6464,8165C6375,8050 6225,7878 6151,7806L6101,7757L6090,7784C6076,7822 6079,7831 6094,7797L6107,7768L6189,7857C6297,7972 6443,8146 6510,8240C6571,8325 6588,8346 6570,8311C6562,8296 6562,8284 6568,8278C6574,8272 6580,8278 6584,8295C6588,8310 6593,8320 6595,8318C6598,8316 6578,8249 6551,8169C6484,7971 6438,7848 6434,7853C6432,7855 6441,7888 6456,7926C6502,8048 6570,8253 6567,8257C6564,8259 6539,8192 6510,8108C6392,7764 6237,7413 6086,7145C6018,7026 5860,6781 5850,6780C5847,6780 5821,6827 5792,6884C5763,6941 5683,7069 5616,7170L5493,7353L5516,7444C5555,7593 5621,7912 5616,7924C5614,7930 5611,7924 5611,7911C5610,7898 5608,7889 5605,7892C5602,7895 5605,7931 5612,7971C5621,8026 5626,8039 5630,8020C5640,7981 5660,8123 5655,8195C5652,8248 5652,8250 5660,8215C5667,8183 5668,8189 5665,8250C5663,8300 5664,8315 5670,8295C5678,8265 5678,8266 5680,8305C5686,8401 5684,8911 5679,8870C5675,8842 5674,8858 5675,8910C5677,8970 5676,8986 5670,8965C5663,8942 5662,8948 5664,8995C5666,9028 5665,9044 5662,9030C5658,9012 5654,9022 5644,9070C5628,9153 5628,9192 5645,9120C5652,9090 5658,9074 5659,9085C5661,9133 5581,9427 5570,9410C5565,9403 5561,9406 5557,9419C5554,9431 5556,9438 5561,9434C5572,9428 5571,9575 5560,9610C5553,9631 5552,9632 5551,9615C5550,9604 5538,9628 5524,9669C5510,9710 5494,9753 5488,9764C5481,9779 5481,9782 5488,9775C5494,9769 5510,9736 5524,9700C5538,9664 5549,9642 5549,9650C5550,9677 5494,9795 5450,9860C5399,9936 5344,10003 5200,10161C4835,10561 4672,10814 4530,11201C4503,11275 4480,11328 4480,11320C4479,11312 4472,11323 4464,11344C4456,11366 4452,11389 4454,11394C4456,11400 4459,11396 4459,11386C4460,11375 4462,11369 4465,11372C4468,11375 4457,11431 4441,11496C4424,11562 4405,11646 4398,11685C4388,11742 4384,11750 4378,11730C4372,11712 4372,11716 4375,11745C4380,11796 4345,12047 4338,12005C4335,11989 4334,12011 4336,12055C4338,12121 4337,12127 4330,12090C4324,12057 4323,12072 4325,12150C4327,12224 4325,12240 4320,12205C4316,12174 4314,12211 4315,12305C4317,12419 4316,12437 4310,12380C4306,12337 4305,12387 4308,12498C4310,12603 4311,12690 4308,12690C4306,12690 4255,12626 4195,12548zM4294,12642C4288,12638 4219,12550 4140,12446C3854,12065 3646,11723 3515,11417C3494,11369 3476,11331 3474,11333C3467,11339 3556,11536 3623,11665C3765,11935 3947,12211 4199,12537C4251,12605 4296,12657 4299,12654C4302,12651 4300,12646 4294,12642zM4297,12598C4294,12590 4291,12593 4291,12604C4290,12615 4293,12621 4296,12617C4299,12614 4300,12605 4297,12598zM3167,12388C3164,12381 3162,12386 3162,12400C3162,12414 3164,12419 3167,12413C3169,12406 3169,12394 3167,12388zM3157,12348C3154,12340 3151,12343 3151,12354C3150,12365 3153,12371 3156,12367C3159,12364 3160,12355 3157,12348zM3147,12298C3144,12291 3142,12296 3142,12310C3142,12324 3144,12329 3147,12323C3149,12316 3149,12304 3147,12298zM3137,12258C3134,12250 3131,12253 3131,12264C3130,12275 3133,12281 3136,12277C3139,12274 3140,12265 3137,12258zM3127,12208C3124,12201 3122,12206 3122,12220C3122,12234 3124,12239 3127,12233C3129,12226 3129,12214 3127,12208zM3117,12168C3114,12160 3111,12163 3111,12174C3110,12185 3113,12191 3116,12187C3119,12184 3120,12175 3117,12168zM3107,12128C3104,12120 3101,12123 3101,12134C3100,12145 3103,12151 3106,12147C3109,12144 3110,12135 3107,12128zM3097,12088C3094,12080 3091,12083 3091,12094C3090,12105 3093,12111 3096,12107C3099,12104 3100,12095 3097,12088zM3087,12048C3084,12040 3081,12043 3081,12054C3080,12065 3083,12071 3086,12067C3089,12064 3090,12055 3087,12048zM2840,12056C2840,12054 2832,12046 2823,12039C2807,12026 2806,12027 2819,12043C2832,12059 2840,12064 2840,12056zM4347,11903C4344,11893 4342,11901 4342,11920C4342,11939 4344,11947 4347,11938C4349,11928 4349,11912 4347,11903zM4357,11833C4354,11823 4352,11831 4352,11850C4352,11869 4354,11877 4357,11868C4359,11858 4359,11842 4357,11833zM3024,11806C3021,11791 3016,11781 3013,11783C3011,11786 3012,11800 3016,11814C3019,11829 3024,11839 3027,11837C3029,11834 3028,11820 3024,11806zM4367,11778C4364,11771 4362,11776 4362,11790C4362,11804 4364,11809 4367,11803C4369,11796 4369,11784 4367,11778zM3007,11748C3004,11740 3001,11743 3001,11754C3000,11765 3003,11771 3006,11767C3009,11764 3010,11755 3007,11748zM2994,11696C2991,11681 2986,11671 2983,11673C2981,11676 2982,11690 2986,11704C2989,11719 2994,11729 2997,11727C2999,11724 2998,11710 2994,11696zM4387,11668C4384,11661 4382,11666 4382,11680C4382,11694 4384,11699 4387,11693C4389,11686 4389,11674 4387,11668zM2977,11638C2974,11630 2971,11633 2971,11644C2970,11655 2973,11661 2976,11657C2979,11654 2980,11645 2977,11638zM4397,11618C4394,11611 4392,11616 4392,11630C4392,11644 4394,11649 4397,11643C4399,11636 4399,11624 4397,11618zM2967,11598C2964,11590 2961,11593 2961,11604C2960,11615 2963,11621 2966,11617C2969,11614 2970,11605 2967,11598zM4407,11578C4404,11570 4401,11573 4401,11584C4400,11595 4403,11601 4406,11597C4409,11594 4410,11585 4407,11578zM2954,11541C2950,11524 2945,11511 2943,11514C2940,11516 2941,11533 2945,11550C2954,11591 2962,11583 2954,11541zM4417,11528C4414,11521 4412,11526 4412,11540C4412,11554 4414,11559 4417,11553C4419,11546 4419,11534 4417,11528zM4444,11440C4448,11416 4447,11411 4441,11425C4437,11436 4430,11461 4426,11480C4422,11504 4423,11509 4429,11495C4433,11484 4440,11459 4444,11440zM2931,11454C2926,11433 2922,11424 2921,11435C2920,11459 2931,11502 2936,11497C2939,11495 2936,11475 2931,11454zM2917,11378C2914,11371 2912,11376 2912,11390C2912,11404 2914,11409 2917,11403C2919,11396 2919,11384 2917,11378zM2907,11298C2905,11285 2903,11295 2903,11320C2903,11345 2905,11355 2907,11343C2909,11330 2909,11310 2907,11298zM3459,11281C3453,11263 3446,11251 3444,11253C3442,11255 3445,11271 3451,11289C3457,11307 3464,11319 3466,11317C3468,11315 3465,11299 3459,11281zM4537,11143C4532,11139 4490,11248 4490,11263C4491,11270 4502,11246 4516,11211C4529,11176 4539,11145 4537,11143zM3419,11171C3413,11153 3406,11141 3404,11143C3402,11145 3405,11161 3411,11179C3417,11197 3424,11209 3426,11207C3428,11205 3425,11189 3419,11171zM2907,11168C2904,11160 2901,11163 2901,11174C2900,11185 2903,11191 2906,11187C2909,11184 2910,11175 2907,11168zM4656,10890C4777,10647 4897,10482 5177,10172C5355,9976 5426,9889 5459,9828C5489,9774 5476,9788 5425,9863C5384,9926 5303,10021 5127,10215C4886,10480 4759,10661 4635,10915C4589,11009 4549,11096 4546,11110C4543,11124 4550,11113 4562,11085C4574,11058 4616,10970 4656,10890zM2980,11028C2986,11018 2989,11010 2986,11010C2979,11010 2920,11103 2920,11114C2920,11120 2931,11107 2945,11085C2958,11063 2974,11037 2980,11028zM3384,11066C3381,11051 3376,11041 3373,11043C3371,11046 3372,11060 3376,11074C3379,11089 3384,11099 3387,11097C3389,11094 3388,11080 3384,11066zM2997,10978C2994,10970 2991,10973 2991,10984C2990,10995 2993,11001 2996,10997C2999,10994 3000,10985 2997,10978zM3007,10928C3004,10921 3002,10926 3002,10940C3002,10954 3004,10959 3007,10953C3009,10946 3009,10934 3007,10928zM3017,10888C3014,10880 3011,10883 3011,10894C3010,10905 3013,10911 3016,10907C3019,10904 3020,10895 3017,10888zM3307,10788C3304,10780 3301,10783 3301,10794C3300,10805 3303,10811 3306,10807C3309,10804 3310,10795 3307,10788zM3047,10748C3044,10741 3042,10746 3042,10760C3042,10774 3044,10779 3047,10773C3049,10766 3049,10754 3047,10748zM3057,10698C3054,10691 3052,10696 3052,10710C3052,10724 3054,10729 3057,10723C3059,10716 3059,10704 3057,10698zM3257,10523C3254,10513 3252,10519 3252,10535C3252,10552 3254,10559 3257,10553C3259,10546 3259,10532 3257,10523zM3247,10453C3244,10443 3242,10451 3242,10470C3242,10489 3244,10497 3247,10488C3249,10478 3249,10462 3247,10453zM3009,10051C2997,10022 2986,10001 2984,10003C2982,10005 2990,10030 3002,10058C3014,10086 3025,10108 3028,10106C3030,10104 3021,10079 3009,10051zM2926,9887C2867,9786 2749,9622 2668,9528C2622,9475 2600,9463 2600,9493C2600,9501 2603,9501 2609,9492C2623,9469 2835,9743 2927,9905C2953,9951 2976,9987 2978,9985C2980,9983 2957,9939 2926,9887zM3167,9748C3164,9741 3162,9746 3162,9760C3162,9774 3164,9779 3167,9773C3169,9766 3169,9754 3167,9748zM3177,9693C3174,9683 3172,9689 3172,9705C3172,9722 3174,9729 3177,9723C3179,9716 3179,9702 3177,9693zM1427,9678C1424,9670 1421,9673 1421,9684C1420,9695 1423,9701 1426,9697C1429,9694 1430,9685 1427,9678zM6664,9650C6669,9633 6668,9630 6662,9640C6657,9648 6649,9666 6646,9680C6641,9697 6642,9700 6648,9690C6653,9682 6661,9664 6664,9650zM1437,9628C1434,9621 1432,9626 1432,9640C1432,9654 1434,9659 1437,9653C1439,9646 1439,9634 1437,9628zM5557,9528C5555,9515 5553,9525 5553,9550C5553,9575 5555,9585 5557,9573C5559,9560 5559,9540 5557,9528zM6709,9528C6720,9494 6728,9465 6726,9463C6724,9460 6714,9483 6705,9512C6695,9541 6685,9571 6682,9578C6680,9584 6680,9590 6683,9590C6686,9590 6698,9562 6709,9528zM6749,9405C6749,9400 6745,9402 6740,9410C6735,9418 6731,9432 6731,9440C6731,9456 6748,9424 6749,9405zM1487,9408C1484,9400 1481,9403 1481,9414C1480,9425 1483,9431 1486,9427C1489,9424 1490,9415 1487,9408zM5598,9310C5598,9302 5592,9311 5585,9330C5578,9349 5572,9372 5572,9380C5572,9388 5578,9379 5585,9360C5592,9341 5598,9318 5598,9310zM6777,9298C6774,9290 6771,9293 6771,9304C6770,9315 6773,9321 6776,9317C6779,9314 6780,9305 6777,9298zM5607,9268C5604,9260 5601,9263 5601,9274C5600,9285 5603,9291 5606,9287C5609,9284 5610,9275 5607,9268zM6787,9258C6784,9250 6781,9253 6781,9264C6780,9275 6783,9281 6786,9277C6789,9274 6790,9265 6787,9258zM5617,9228C5614,9220 5611,9223 5611,9234C5610,9245 5613,9251 5616,9247C5619,9244 5620,9235 5617,9228zM5627,9188C5624,9180 5621,9183 5621,9194C5620,9205 5623,9211 5626,9207C5629,9204 5630,9195 5627,9188zM1547,9073C1544,9063 1542,9069 1542,9085C1542,9102 1544,9109 1547,9103C1549,9096 1549,9082 1547,9073zM1557,9003C1554,8993 1552,9001 1552,9020C1552,9039 1554,9047 1557,9038C1559,9028 1559,9012 1557,9003zM2134,8885C2138,8866 2137,8860 2131,8870C2127,8878 2120,8899 2116,8915C2112,8934 2113,8940 2119,8930C2123,8922 2130,8902 2134,8885zM2159,8800C2159,8791 2155,8792 2150,8805C2145,8816 2141,8832 2141,8840C2141,8849 2145,8848 2150,8835C2155,8824 2159,8808 2159,8800zM2178,8720C2178,8711 2175,8713 2170,8725C2165,8736 2162,8754 2162,8765C2162,8781 2164,8780 2170,8760C2174,8746 2178,8728 2178,8720zM3075,8691C3059,8652 3045,8622 3043,8624C3041,8626 3052,8659 3067,8698C3082,8737 3096,8767 3098,8765C3100,8763 3090,8729 3075,8691zM2187,8668C2184,8661 2182,8666 2182,8680C2182,8694 2184,8699 2187,8693C2189,8686 2189,8674 2187,8668zM2197,8628C2194,8620 2191,8623 2191,8634C2190,8645 2193,8651 2196,8647C2199,8644 2200,8635 2197,8628zM6736,8613C6728,8598 6721,8588 6720,8592C6720,8604 6743,8650 6747,8646C6750,8644 6745,8629 6736,8613zM2207,8578C2204,8571 2202,8576 2202,8590C2202,8604 2204,8609 2207,8603C2209,8596 2209,8584 2207,8578zM3024,8561C3015,8538 3006,8521 3004,8523C3002,8525 3008,8545 3017,8568C3026,8591 3035,8608 3037,8606C3039,8604 3033,8584 3024,8561zM2217,8528C2214,8521 2212,8526 2212,8540C2212,8554 2214,8559 2217,8553C2219,8546 2219,8534 2217,8528zM2227,8473C2224,8463 2222,8469 2222,8485C2222,8502 2224,8509 2227,8503C2229,8496 2229,8482 2227,8473zM2986,8473C2978,8458 2971,8448 2970,8452C2970,8464 2993,8510 2997,8506C3000,8504 2995,8489 2986,8473zM1607,8388C1605,8364 1603,8381 1603,8425C1603,8469 1605,8488 1607,8468C1609,8447 1609,8411 1607,8388zM2237,8413C2234,8403 2232,8409 2232,8425C2232,8442 2234,8449 2237,8443C2239,8436 2239,8422 2237,8413zM5677,8368C5675,8350 5673,8362 5673,8395C5673,8428 5675,8443 5677,8428C5679,8413 5679,8386 5677,8368zM2940,8364C2883,8237 2737,7940 2733,7944C2731,7946 2760,8010 2798,8086C2835,8163 2888,8273 2915,8332C2942,8391 2965,8438 2967,8436C2969,8434 2957,8402 2940,8364zM2247,8343C2244,8333 2242,8341 2242,8360C2242,8379 2244,8387 2247,8378C2249,8368 2249,8352 2247,8343zM2257,8283C2254,8273 2252,8279 2252,8295C2252,8312 2254,8319 2257,8313C2259,8306 2259,8292 2257,8283zM5647,8123C5644,8113 5642,8119 5642,8135C5642,8152 5644,8159 5647,8153C5649,8146 5649,8132 5647,8123zM5637,8063C5634,8053 5632,8059 5632,8075C5632,8092 5634,8099 5637,8093C5639,8086 5639,8072 5637,8063zM2274,7991C2270,7974 2265,7961 2263,7964C2260,7966 2261,7983 2265,8000C2274,8041 2282,8033 2274,7991zM2656,7774C2620,7703 2591,7648 2591,7652C2590,7663 2714,7910 2718,7906C2720,7904 2692,7844 2656,7774zM1520,7818C1448,7618 1324,7463 1173,7382L1114,7351L1022,7178C972,7083 902,6944 866,6870C830,6796 801,6740 800,6747C800,6760 1049,7256 1089,7322C1104,7347 1132,7370 1171,7391C1247,7432 1350,7526 1402,7603C1446,7668 1501,7780 1521,7848C1528,7871 1535,7888 1538,7885C1541,7883 1533,7852 1520,7818zM5597,7848C5594,7841 5592,7846 5592,7860C5592,7874 5594,7879 5597,7873C5599,7866 5599,7854 5597,7848zM6421,7813C6409,7793 6407,7799 6416,7825C6420,7834 6425,7839 6427,7836C6430,7834 6427,7823 6421,7813zM5579,7761C5573,7727 5565,7701 5563,7704C5561,7706 5564,7736 5571,7769C5577,7803 5585,7829 5587,7826C5589,7824 5586,7794 5579,7761zM2227,7743C2224,7733 2222,7741 2222,7760C2222,7779 2224,7787 2227,7778C2229,7768 2229,7752 2227,7743zM6401,7763C6389,7743 6387,7749 6396,7775C6400,7784 6405,7789 6407,7786C6410,7784 6407,7773 6401,7763zM6369,7681C6357,7653 6345,7631 6343,7633C6341,7635 6349,7660 6361,7689C6373,7717 6385,7739 6387,7737C6389,7735 6381,7710 6369,7681zM2571,7593C2560,7572 2551,7558 2550,7562C2550,7574 2583,7640 2588,7636C2590,7634 2582,7615 2571,7593zM6321,7573C6310,7552 6301,7538 6300,7542C6300,7554 6333,7620 6338,7616C6340,7614 6332,7595 6321,7573zM2508,7445C2468,7347 2450,7311 2465,7360C2478,7403 2542,7551 2546,7547C2548,7546 2531,7499 2508,7445zM6216,7353C6133,7190 5989,6937 5983,6944C5981,6946 6011,7001 6050,7066C6089,7131 6160,7262 6208,7357C6256,7451 6296,7527 6298,7525C6300,7523 6263,7446 6216,7353zM7097,7433C7094,7423 7092,7431 7092,7450C7092,7469 7094,7477 7097,7468C7099,7458 7099,7442 7097,7433zM2197,7273C2195,7241 2194,7265 2194,7325C2194,7386 2195,7412 2197,7383C2199,7354 2199,7305 2197,7273zM7107,7363C7104,7353 7102,7361 7102,7380C7102,7399 7104,7407 7107,7398C7109,7388 7109,7372 7107,7363zM2441,7269C2436,7256 2431,7250 2431,7257C2430,7272 2441,7302 2446,7297C2449,7295 2446,7282 2441,7269zM2327,6823C2324,6813 2322,6819 2322,6835C2322,6852 2324,6859 2327,6853C2329,6846 2329,6832 2327,6823zM2227,6783C2225,6767 2223,6778 2223,6805C2223,6833 2225,6845 2227,6833C2229,6820 2229,6798 2227,6783zM2317,6753C2314,6743 2312,6751 2312,6770C2312,6789 2314,6797 2317,6788C2319,6778 2319,6762 2317,6753zM7097,6723C7094,6713 7092,6721 7092,6740C7092,6759 7094,6767 7097,6758C7099,6748 7099,6732 7097,6723zM786,6693C778,6678 771,6668 770,6672C770,6684 793,6730 797,6726C800,6724 795,6709 786,6693zM2307,6683C2304,6673 2302,6681 2302,6700C2302,6719 2304,6727 2307,6718C2309,6708 2309,6692 2307,6683zM749,6596C737,6565 725,6541 723,6543C721,6545 729,6573 741,6604C753,6635 765,6659 767,6657C769,6655 761,6627 749,6596zM704,6476C695,6450 686,6431 684,6433C682,6435 687,6458 696,6484C705,6510 714,6529 716,6527C718,6525 713,6502 704,6476zM7057,6498C7054,6491 7052,6496 7052,6510C7052,6524 7054,6529 7057,6523C7059,6516 7059,6504 7057,6498zM8500,6501C8500,6496 8474,6471 8443,6445L8385,6398L8437,6448C8469,6479 8485,6500 8477,6503C8470,6506 8472,6509 8483,6509C8492,6510 8500,6506 8500,6501zM670,6383C659,6366 659,6366 664,6383C667,6393 670,6407 671,6413C671,6422 673,6422 676,6413C679,6406 676,6393 670,6383zM7797,6414C7794,6411 7785,6410 7778,6413C7770,6416 7773,6419 7784,6419C7795,6420 7801,6417 7797,6414zM8380,6397C8380,6395 8368,6383 8353,6369L8325,6345L8349,6373C8372,6398 8380,6405 8380,6397zM634,6256C619,6204 605,6162 602,6164C600,6167 611,6212 626,6264C641,6317 655,6359 657,6357C659,6354 649,6309 634,6256zM8320,6347C8320,6345 8301,6326 8278,6305L8235,6265L8275,6308C8311,6347 8320,6355 8320,6347zM2297,6213C2294,6203 2292,6209 2292,6225C2292,6242 2294,6249 2297,6243C2299,6236 2299,6222 2297,6213zM595,6110C586,6069 578,6077 586,6119C590,6136 595,6149 597,6146C600,6144 599,6127 595,6110zM577,6038C574,6031 572,6036 572,6050C572,6064 574,6069 577,6063C579,6056 579,6044 577,6038zM567,5998C564,5990 561,5993 561,6004C560,6015 563,6021 566,6017C569,6014 570,6005 567,5998zM557,5943C554,5933 552,5939 552,5955C552,5972 554,5979 557,5973C559,5966 559,5952 557,5943zM547,5888C544,5881 542,5886 542,5900C542,5914 544,5919 547,5913C549,5906 549,5894 547,5888zM537,5823C534,5813 532,5821 532,5840C532,5859 534,5867 537,5858C539,5848 539,5832 537,5823zM507,5588C505,5575 503,5583 503,5605C502,5627 504,5637 507,5628C509,5618 509,5600 507,5588zM427,5068C424,5060 421,5063 421,5074C420,5085 423,5091 426,5087C429,5084 430,5075 427,5068zM377,4768C375,4755 373,4765 373,4790C373,4815 375,4825 377,4813C379,4800 379,4780 377,4768zM367,4688C365,4675 363,4683 363,4705C362,4727 364,4737 367,4728C369,4718 369,4700 367,4688zM367,4063C364,4053 362,4061 362,4080C362,4099 364,4107 367,4098C369,4088 369,4072 367,4063zM387,3918C384,3911 382,3916 382,3930C382,3944 384,3949 387,3943C389,3936 389,3924 387,3918zM397,3863C394,3853 392,3859 392,3875C392,3892 394,3899 397,3893C399,3886 399,3872 397,3863zM407,3818C404,3810 401,3813 401,3824C400,3835 403,3841 406,3837C409,3834 410,3825 407,3818zM417,3768C414,3761 412,3766 412,3780C412,3794 414,3799 417,3793C419,3786 419,3774 417,3768zM39,3750C39,3740 36,3742 30,3755C18,3782 18,3798 30,3780C35,3772 39,3758 39,3750zM427,3728C424,3720 421,3723 421,3734C420,3745 423,3751 426,3747C429,3744 430,3735 427,3728zM69,3668C80,3634 88,3605 86,3603C84,3600 74,3623 65,3652C55,3681 45,3711 42,3718C40,3724 40,3730 43,3730C46,3730 58,3702 69,3668zM437,3688C434,3680 431,3683 431,3694C430,3705 433,3711 436,3707C439,3704 440,3695 437,3688zM124,3516C139,3478 149,3445 146,3443C143,3439 90,3574 90,3587C90,3601 100,3581 124,3516zM8108,3458C8100,3451 8073,3409 8050,3365C7978,3232 7854,3033 7791,2952C7676,2801 7525,2673 7373,2596C7286,2552 7299,2567 7392,2618C7441,2644 7507,2685 7541,2709C7685,2815 7847,3022 8006,3305C8095,3465 8099,3470 8112,3470C8119,3470 8117,3465 8108,3458zM180,3365C180,3360 175,3362 170,3370C165,3378 160,3390 160,3395C160,3401 165,3398 170,3390C175,3382 180,3371 180,3365zM200,3315C200,3310 195,3312 190,3320C185,3328 180,3340 180,3345C180,3351 185,3348 190,3340C195,3332 200,3321 200,3315zM220,3265C220,3260 215,3262 210,3270C205,3278 200,3290 200,3295C200,3301 205,3298 210,3290C215,3282 220,3271 220,3265zM8167,3238C8164,3230 8161,3233 8161,3244C8160,3255 8163,3261 8166,3257C8169,3254 8170,3245 8167,3238zM240,3215C240,3210 235,3212 230,3220C225,3228 220,3240 220,3245C220,3251 225,3248 230,3240C235,3232 240,3221 240,3215zM331,3010C390,2876 400,2850 369,2905C345,2949 240,3189 241,3199C241,3207 268,3151 331,3010zM8187,3118C8184,3111 8182,3116 8182,3130C8182,3144 8184,3149 8187,3143C8189,3136 8189,3124 8187,3118zM474,2703C516,2619 548,2550 545,2550C540,2550 390,2846 390,2857C390,2869 398,2855 474,2703zM7290,2560C7282,2555 7271,2550 7265,2550C7260,2550 7262,2555 7270,2560C7278,2565 7290,2570 7295,2570C7301,2570 7298,2565 7290,2560zM640,2390C957,1831 1357,1358 1792,1027C1992,875 2276,703 2473,616C2521,595 2559,575 2556,573C2550,566 2332,672 2206,744C1645,1063 1191,1506 794,2120C689,2281 525,2570 554,2539C556,2537 595,2470 640,2390zM8197,2223C8194,2213 8192,2221 8192,2240C8192,2259 8194,2267 8197,2258C8199,2248 8199,2232 8197,2223zM8109,1841C8102,1818 8095,1802 8093,1804C8090,1806 8094,1827 8101,1849C8108,1872 8115,1888 8117,1886C8120,1884 8116,1863 8109,1841zM8074,1736C8065,1710 8056,1691 8054,1693C8052,1695 8057,1718 8066,1744C8075,1770 8084,1789 8086,1787C8088,1785 8083,1762 8074,1736zM8041,1653C8029,1633 8027,1639 8036,1665C8040,1674 8045,1679 8047,1676C8050,1674 8047,1663 8041,1653zM7981,1516C7954,1458 7929,1410 7927,1410C7924,1410 7945,1459 7973,1520C8001,1580 8026,1628 8028,1626C8030,1624 8009,1574 7981,1516zM7890,1343C7702,1007 7367,671 7000,450C6846,357 6508,199 6494,213C6492,215 6529,231 6576,249C6714,302 6954,428 7095,522C7404,728 7682,1014 7855,1304C7917,1408 7942,1435 7890,1343zM2627,549C2653,537 2749,501 2840,469C2931,437 3000,411 2993,411C2976,410 2685,513 2620,543C2553,574 2559,579 2627,549zM3067,394C3064,391 3055,390 3048,393C3040,396 3043,399 3054,399C3065,400 3071,397 3067,394zM3257,344C3254,341 3245,340 3238,343C3230,346 3233,349 3244,349C3255,350 3261,347 3257,344zM3303,333C3296,331 3284,331 3278,333C3271,336 3276,338 3290,338C3304,338 3309,336 3303,333zM3347,324C3344,321 3335,320 3328,323C3320,326 3323,329 3334,329C3345,330 3351,327 3347,324zM3393,313C3386,311 3374,311 3368,313C3361,316 3366,318 3380,318C3394,318 3399,316 3393,313zM3443,303C3436,301 3424,301 3418,303C3411,306 3416,308 3430,308C3444,308 3449,306 3443,303zM3748,253C3738,251 3722,251 3713,253C3703,256 3711,258 3730,258C3749,258 3757,256 3748,253zM6454,195C6437,187 6410,179 6394,175C6378,172 6388,179 6415,189C6472,211 6501,215 6454,195zM6300,146C6280,138 6249,130 6230,127C6207,123 6215,127 6250,139C6312,160 6354,166 6300,146zM6183,113C6176,111 6164,111 6158,113C6151,116 6156,118 6170,118C6184,118 6189,116 6183,113zM4623,93C4616,91 4602,91 4593,93C4583,96 4589,98 4605,98C4622,98 4629,96 4623,93zM4673,83C4666,81 4654,81 4648,83C4641,86 4646,88 4660,88C4674,88 4679,86 4673,83zM6053,83C6046,81 6034,81 6028,83C6021,86 6026,88 6040,88C6054,88 6059,86 6053,83zM6003,73C5996,71 5982,71 5973,73C5963,76 5969,78 5985,78C6002,78 6009,76 6003,73z" id="svg_2" fill="url(#svg_50)" fill-opacity="1" stroke="none" stroke-opacity="1"></path><path d="M3051,11904C3051,11893 3054,11890 3057,11898C3060,11905 3059,11914 3056,11917C3053,11921 3050,11915 3051,11904z" id="svg_3" fill="#9900cc"></path><path d="M2131,11154C2131,11143 2134,11140 2137,11148C2140,11155 2139,11164 2136,11167C2133,11171 2130,11165 2131,11154z" id="svg_4" fill="#9900cc"></path><path d="M3321,10914C3321,10903 3324,10900 3327,10908C3330,10915 3329,10924 3326,10927C3323,10931 3320,10925 3321,10914z" id="svg_5" fill="#9900cc"></path><path d="M2133,10875C2133,10853 2135,10845 2137,10858C2139,10870 2139,10888 2137,10898C2134,10907 2132,10897 2133,10875z" id="svg_6" fill="#9900cc"></path><path d="M3311,10874C3311,10863 3314,10860 3317,10868C3320,10875 3319,10884 3316,10887C3313,10891 3310,10885 3311,10874z" id="svg_7" fill="#9900cc"></path><path d="M2141,10734C2141,10723 2144,10720 2147,10728C2150,10735 2149,10744 2146,10747C2143,10751 2140,10745 2141,10734z" id="svg_8" fill="#9900cc"></path><path d="M2151,10674C2151,10663 2154,10660 2157,10668C2160,10675 2159,10684 2156,10687C2153,10691 2150,10685 2151,10674z" id="svg_9" fill="#9900cc"></path><path d="M3262,10645C3262,10629 3264,10623 3267,10633C3269,10642 3269,10656 3267,10663C3264,10669 3262,10662 3262,10645z" id="svg_10" fill="#9900cc"></path><path d="M3110,10287C3110,10278 3181,10170 3187,10170C3193,10170 3153,10240 3130,10270C3119,10284 3110,10292 3110,10287z" id="svg_11" fill="#9900cc"></path><path d="M3122,9920C3122,9906 3124,9901 3127,9908C3129,9914 3129,9926 3127,9933C3124,9939 3122,9934 3122,9920z" id="svg_12" fill="#9900cc"></path><path d="M3132,9870C3132,9856 3134,9851 3137,9858C3139,9864 3139,9876 3137,9883C3134,9889 3132,9884 3132,9870z" id="svg_13" fill="#9900cc"></path><path d="M3142,9820C3142,9806 3144,9801 3147,9808C3149,9814 3149,9826 3147,9833C3144,9839 3142,9834 3142,9820z" id="svg_14" fill="#9900cc"></path><path d="M1391,9774C1391,9763 1394,9760 1397,9768C1400,9775 1399,9784 1396,9787C1393,9791 1390,9785 1391,9774z" id="svg_15" fill="#9900cc"></path><path d="M1451,9514C1451,9503 1454,9500 1457,9508C1460,9515 1459,9524 1456,9527C1453,9531 1450,9525 1451,9514z" id="svg_16" fill="#9900cc"></path><path d="M1502,9265C1502,9249 1504,9243 1507,9253C1509,9262 1509,9276 1507,9283C1504,9289 1502,9282 1502,9265z" id="svg_17" fill="#9900cc"></path><path d="M6824,9010C6824,8947 6825,8921 6827,8953C6829,8984 6829,9036 6827,9068C6825,9099 6824,9073 6824,9010z" id="svg_18" fill="#9900cc"></path><path d="M3156,8994C3152,8980 3151,8966 3153,8963C3156,8961 3161,8971 3164,8986C3168,9000 3169,9014 3167,9017C3164,9019 3159,9009 3156,8994z" id="svg_19" fill="#9900cc"></path><path d="M6802,8810C6802,8796 6804,8791 6807,8798C6809,8804 6809,8816 6807,8823C6804,8829 6802,8824 6802,8810z" id="svg_20" fill="#9900cc"></path><path d="M5694,8640C5694,8555 5696,8520 5697,8563C5699,8605 5699,8675 5697,8718C5696,8760 5694,8725 5694,8640z" id="svg_21" fill="#9900cc"></path><path d="M5851,8544C5851,8533 5854,8530 5857,8538C5860,8545 5859,8554 5856,8557C5853,8561 5850,8555 5851,8544z" id="svg_22" fill="#9900cc"></path><path d="M5841,8494C5841,8483 5844,8480 5847,8488C5850,8495 5849,8504 5846,8507C5843,8511 5840,8505 5841,8494z" id="svg_23" fill="#9900cc"></path><path d="M5841,8254C5841,8243 5844,8240 5847,8248C5850,8255 5849,8264 5846,8267C5843,8271 5840,8265 5841,8254z" id="svg_24" fill="#9900cc"></path><path d="M1562,8045C1562,8029 1564,8023 1567,8033C1569,8042 1569,8056 1567,8063C1564,8069 1562,8062 1562,8045z" id="svg_25" fill="#9900cc"></path><path d="M5901,7984C5901,7973 5904,7970 5907,7978C5910,7985 5909,7994 5906,7997C5903,8001 5900,7995 5901,7984z" id="svg_26" fill="#9900cc"></path><path d="M5622,7965C5622,7949 5624,7943 5627,7953C5629,7962 5629,7976 5627,7983C5624,7989 5622,7982 5622,7965z" id="svg_27" fill="#9900cc"></path><path d="M7071,7604C7071,7593 7074,7590 7077,7598C7080,7605 7079,7614 7076,7617C7073,7621 7070,7615 7071,7604z" id="svg_28" fill="#9900cc"></path><path d="M7082,7560C7082,7546 7084,7541 7087,7548C7089,7554 7089,7566 7087,7573C7084,7579 7082,7574 7082,7560z" id="svg_29" fill="#9900cc"></path><path d="M2361,7064C2361,7053 2364,7050 2367,7058C2370,7065 2369,7074 2366,7077C2363,7081 2360,7075 2361,7064z" id="svg_30" fill="#9900cc"></path><path d="M2351,7024C2351,7013 2354,7010 2357,7018C2360,7025 2359,7034 2356,7037C2353,7041 2350,7035 2351,7024z" id="svg_31" fill="#9900cc"></path><path d="M2283,6595C2283,6568 2285,6557 2287,6573C2289,6588 2289,6610 2287,6623C2285,6635 2283,6623 2283,6595z" id="svg_32" fill="#9900cc"></path><path d="M7082,6615C7082,6599 7084,6593 7087,6603C7089,6612 7089,6626 7087,6633C7084,6639 7082,6632 7082,6615z" id="svg_33" fill="#9900cc"></path><path d="M2267,6488C2274,6410 2278,6406 2279,6478C2280,6512 2276,6540 2271,6540C2267,6540 2265,6516 2267,6488z" id="svg_34" fill="#9900cc"></path><path d="M7410,6460C7402,6455 7400,6450 7405,6450C7411,6450 7422,6455 7430,6460C7438,6465 7441,6470 7435,6470C7430,6470 7418,6465 7410,6460z" id="svg_35" fill="#9900cc"></path><path d="M8296,5925C8259,5885 8144,5771 8038,5673C7696,5354 7579,5200 7501,4962C7430,4749 7419,4450 7471,4140C7502,3952 7569,3676 7623,3517L7656,3418L7772,3538C8064,3842 8184,4080 8178,4345L8176,4425L8169,4335C8163,4258 8163,4265 8165,4385C8166,4473 8164,4510 8159,4485C8153,4453 8152,4456 8155,4505C8162,4597 8133,4754 8100,4814C8074,4860 8071,4875 8069,4970C8068,5035 8072,5091 8080,5118C8100,5181 8104,5161 8085,5095C8076,5064 8070,5037 8073,5034C8075,5032 8085,5060 8095,5097C8105,5134 8142,5240 8177,5334C8211,5427 8238,5505 8236,5507C8234,5509 8220,5477 8205,5435C8190,5394 8175,5361 8173,5364C8171,5366 8185,5408 8204,5456C8223,5505 8239,5539 8239,5531C8241,5503 8251,5529 8319,5726C8405,5976 8404,5973 8380,5987C8364,5998 8354,5990 8296,5925zM8311,5915C8283,5884 8212,5813 8152,5757C8061,5671 8068,5680 8200,5816C8285,5903 8357,5974 8359,5973C8361,5972 8340,5945 8311,5915zM8349,5841C8331,5786 8314,5742 8312,5745C8310,5747 8323,5794 8341,5849C8359,5904 8376,5948 8378,5945C8380,5943 8367,5896 8349,5841zM8299,5691C8293,5673 8286,5661 8284,5663C8282,5665 8285,5681 8291,5699C8297,5717 8304,5729 8306,5727C8308,5725 8305,5709 8299,5691zM8259,5581C8253,5563 8246,5551 8244,5553C8242,5555 8245,5571 8251,5589C8257,5607 8264,5619 8266,5617C8268,5615 8265,5599 8259,5581zM8159,5311C8153,5293 8146,5281 8144,5283C8142,5285 8145,5301 8151,5319C8157,5337 8164,5349 8166,5347C8168,5345 8165,5329 8159,5311zM8119,5201C8113,5183 8106,5171 8104,5173C8102,5175 8105,5191 8111,5209C8117,5227 8124,5239 8126,5237C8128,5235 8125,5219 8119,5201zM8137,4623C8134,4613 8132,4619 8132,4635C8132,4652 8134,4659 8137,4653C8139,4646 8139,4632 8137,4623zM8147,4558C8144,4550 8141,4553 8141,4564C8140,4575 8143,4581 8146,4577C8149,4574 8150,4565 8147,4558zM8157,4183C8154,4173 8152,4181 8152,4200C8152,4219 8154,4227 8157,4218C8159,4208 8159,4192 8157,4183zM8140,4110C8134,4087 8127,4070 8125,4072C8123,4074 8126,4095 8132,4118C8138,4142 8145,4159 8147,4156C8149,4154 8146,4133 8140,4110zM8069,3940C8045,3895 7993,3816 7954,3763C7866,3646 7670,3436 7659,3447C7655,3451 7649,3469 7646,3485L7640,3515L7651,3488C7657,3472 7665,3460 7669,3460C7677,3460 7844,3638 7904,3712C7967,3790 8050,3916 8079,3978C8093,4007 8105,4028 8108,4026C8110,4023 8093,3985 8069,3940zM7627,3558C7624,3550 7621,3553 7621,3564C7620,3575 7623,3581 7626,3577C7629,3574 7630,3565 7627,3558z" id="svg_36" fill="#9900cc"></path><path d="M7312,4550C7312,4536 7314,4531 7317,4538C7319,4544 7319,4556 7317,4563C7314,4569 7312,4564 7312,4550z" id="svg_37" fill="#9900cc"></path><path d="M7321,4434C7321,4423 7324,4420 7327,4428C7330,4435 7329,4444 7326,4447C7323,4451 7320,4445 7321,4434z" id="svg_38" fill="#9900cc"></path><path d="M8142,3385C8142,3374 8146,3354 8150,3340C8156,3320 8158,3319 8158,3335C8158,3346 8154,3366 8150,3380C8144,3400 8142,3401 8142,3385z" id="svg_39" fill="#9900cc"></path><path d="M8234,2640C8234,2582 8235,2559 8237,2588C8239,2616 8239,2664 8237,2693C8235,2721 8234,2698 8234,2640z" id="svg_40" fill="#9900cc"></path><path d="M8162,2030C8162,2016 8164,2011 8167,2018C8169,2024 8169,2036 8167,2043C8164,2049 8162,2044 8162,2030z" id="svg_41" fill="#9900cc"></path><path d="M3583,263C3592,261 3608,261 3618,263C3627,266 3619,268 3600,268C3581,268 3573,266 3583,263z" id="svg_42" fill="#9900cc"></path><path d="M4071,206C4073,204 4102,200 4135,197C4171,194 4187,195 4175,200C4156,208 4062,214 4071,206z" id="svg_43" fill="#9900cc"></path><path d="M4468,113C4475,110 4484,111 4487,114C4491,117 4485,120 4474,119C4463,119 4460,116 4468,113z" id="svg_44" fill="#9900cc"></path></g></g></svg>